*******************************************************************************
              Charlie\\\\\\\'s Angels (2002) DVDrip  iNTERNAL Xvid BBnRG
*******************************************************************************

-------------------------------------------------------------------------------
                              General Information
-------------------------------------------------------------------------------
Type.................: Movie


Audio Format.........: MP3
Encoder..............: LAME
Bitrate..............: 160 (CBR)
Hz...................: 48,000
Channels.............: Joint Stereo
Reader...............: Samsung DVD 12x (SD-612)
Source...............: DVD

Video Format.........: AVI
Video Bitrate........: 1036
Color................: 8 bit
FPS..................: 25.000
Source...............: DVD 16x9
Original Format......: PAL
Genre................: Action
IMDb Rating..........: 5.5
Movie Information....: http://www.imdb.com/title/tt0160127/
CD1 Size.............: 700MB

-------------------------------------------------------------------------------
                               Post Information
-------------------------------------------------------------------------------
Posted by............: BBnRG (http://bitbitz.net)

-------------------------------------------------------------------------------
                                 Release Notes
-------------------------------------------------------------------------------
***HARDCODED SUBTITLES***

General
Complete name                    : C:\\\\\\\\Users\\\\\\\\Deano\\\\\\\\Videos\\\\\\\\Charlies Angels.avi
Format                           : AVI
Format/Info                      : Audio Video Interleave
File size                        : 700 MiB
Duration                         : 1h 34mn
Overall bit rate                 : 1 036 Kbps
Writing application              : FairUse Wizard - http://fairusewizard.com
Writing library                  : The best and REALLY easy backup tool

Video
ID                               : 0
Format                           : MPEG-4 Visual
Format profile                   : Simple@L3
Format settings, BVOP            : No
Format settings, QPel            : No
Format settings, GMC             : No warppoints
Format settings, Matrix          : Default (H.263)
Codec ID                         : XVID
Codec ID/Hint                    : XviD
Duration                         : 1h 34mn
Bit rate                         : 898 Kbps
Width                            : 688 pixels
Height                           : 384 pixels
Display aspect ratio             : 16:9
Frame rate                       : 25.000 fps
Color space                      : YUV
Chroma subsampling               : 4:2:0
Bit depth                        : 8 bits
Scan type                        : Progressive
Compression mode                 : Lossy
Bits/(Pixel*Frame)               : 0.136
Stream size                      : 607 MiB (87%)
Writing library                  : XviD 1.2.0.dev47 (UTC 2006-11-01)

Audio
ID                               : 1
Format                           : MPEG Audio
Format version                   : Version 1
Format profile                   : Layer 3
Mode                             : Joint stereo
Mode extension                   : MS Stereo
Codec ID                         : 55
Codec ID/Hint                    : MP3
Duration                         : 1h 34mn
Bit rate mode                    : Constant
Bit rate                         : 128 Kbps
Channel(s)                       : 2 channels
Sampling rate                    : 48.0 KHz
Compression mode                 : Lossy
Stream size                      : 86.4 MiB (12%)
Alignment                        : Aligned on interleaves
Interleave, duration             : 40 ms (1.00 video frame)
Interleave, preload duration     : 504 ms
Writing library                  : LAME3.97 
Encoding settings                : -m j -V 4 -q 2 -lowpass 17 -b 128


-------------------------------------------------------------------------------
                                 Install Notes
-------------------------------------------------------------------------------
This release has hardcoded subs.

...:::Movie released by BBnRG:::...
Burn as data using Imgburn, or convert to DVD using you preferred method.
Help and support at HTTP://bitbitz.net
SuperFast downloads at the touch of a button.

~Respect to~
Smile, Hoofa, Megarek, JWC, pjh20, Max, VaLe, Sleezy, BungalowBill, SAFCuk009, 
Xornof, Altezon, BusyLizzy, dylan85, KennyKern, mrssleezy
 
http://www.leetleech.org/images/09208615072765986636.png 
http://www.leetleech.org/images/22197867501037952768.png 
http://www.leetleech.org/images/23960678254443054235.png 
http://www.leetleech.org/images/23845439436373057485.png
